<svg xmlns="http://www.w3.org/2000/svg" xmlns:xlink="http://www.w3.org/1999/xlink" width="1000" zoomAndPan="magnify" viewBox="0 0 750 749.999995" height="1000" preserveAspectRatio="xMidYMid meet" version="1.0"><defs>
  <linearGradient id="grav-grad" x1="0%" y1="0%" x2="100%" y2="100%">
    <stop offset="0%"   stop-color="#a855f7"/>
    <stop offset="50%"  stop-color="#7c3aed"/>
    <stop offset="100%" stop-color="#4c1d95"/>
  </linearGradient>
</defs>
<path fill="url(#grav-grad)" d="M 300.335938 13.816406 C 298.882812 17.589844 299.320312 18.609375 303.386719 20.640625 L 307.308594 22.820312 L 302.660156 25.144531 C 296.558594 28.339844 295.398438 27.324219 295.835938 20.207031 C 296.269531 14.976562 295.980469 14.394531 292.785156 14.394531 C 289.441406 14.394531 289.296875 14.832031 289.296875 23.546875 L 289.296875 32.84375 L 264.3125 47.226562 C 250.511719 55.070312 237.875 62.335938 236.277344 63.207031 C 234.679688 64.078125 223.058594 70.761719 210.421875 78.171875 C 197.785156 85.433594 187.035156 91.246094 186.308594 90.808594 C 185.726562 90.371094 185.292969 84.417969 185.582031 77.589844 L 185.875 65.242188 L 177.449219 65.242188 L 177.449219 97.347656 L 173.089844 99.816406 C 168.296875 102.574219 168.152344 102.867188 170.039062 105.773438 C 171.058594 107.222656 171.929688 107.371094 174.398438 106.0625 L 177.59375 104.320312 L 177.160156 125.527344 L 176.722656 146.738281 L 168.589844 151.386719 C 164.085938 154.003906 140.699219 167.367188 116.875 181.023438 C 92.910156 194.824219 72.28125 206.15625 71.121094 206.15625 C 69.230469 206.15625 68.941406 214.4375 69.085938 268.914062 C 69.230469 322.808594 68.941406 331.960938 67.050781 334.140625 C 65.890625 335.449219 57.902344 340.53125 49.332031 345.324219 C 33.933594 354.042969 33.644531 354.042969 33.644531 350.554688 C 33.644531 347.503906 33.0625 346.925781 30.449219 347.359375 C 28.558594 347.648438 26.960938 348.8125 26.960938 349.972656 C 26.816406 351.136719 26.671875 353.605469 26.527344 355.351562 C 26.378906 357.675781 23.183594 360.289062 13.308594 365.953125 C 6.042969 370.023438 0.234375 373.800781 0.234375 374.089844 C 0.234375 374.527344 0.960938 376.125 1.6875 377.578125 C 3.140625 380.191406 3.863281 380.046875 14.324219 373.800781 C 20.425781 370.167969 25.800781 367.84375 26.234375 368.714844 C 26.671875 369.441406 27.105469 396.460938 27.105469 428.566406 L 26.960938 487.257812 L 19.40625 491.613281 C 11.273438 496.265625 11.273438 496.410156 13.160156 499.460938 C 14.324219 501.203125 15.339844 500.914062 19.84375 498.296875 C 22.894531 496.554688 25.507812 495.390625 25.945312 495.683594 C 26.527344 496.265625 27.542969 506.867188 26.960938 506.867188 C 26.816406 506.867188 24.78125 505.851562 22.601562 504.691406 C 18.679688 502.65625 18.390625 502.800781 16.792969 505.707031 C 15.195312 508.757812 16.355469 509.628906 39.890625 523.140625 C 53.542969 530.984375 64.875 537.375 65.164062 537.375 C 65.308594 537.375 68.503906 539.265625 72.28125 541.589844 L 78.964844 545.945312 L 71.554688 550.015625 C 67.488281 552.195312 64.148438 554.519531 64.148438 554.953125 C 64.148438 555.390625 65.019531 556.988281 66.179688 558.441406 C 68.070312 561.054688 68.503906 560.910156 77.21875 555.824219 C 82.160156 552.773438 86.664062 550.59375 86.953125 551.03125 C 87.386719 551.320312 83.320312 554.082031 78.09375 556.988281 C 72.863281 559.894531 68.503906 562.796875 68.503906 563.234375 C 68.503906 563.816406 69.375 565.414062 70.539062 566.722656 C 72.425781 569.335938 74.316406 568.753906 83.464844 562.945312 L 87.386719 560.328125 L 87.386719 634.855469 L 91.3125 634.417969 C 94.796875 633.980469 95.378906 633.253906 95.378906 629.332031 L 95.378906 624.683594 L 100.460938 627.734375 C 103.222656 629.476562 105.835938 631.078125 105.980469 631.222656 C 106.273438 631.367188 103.804688 633.109375 100.605469 635 C 94.796875 638.195312 93.199219 640.953125 96.105469 642.699219 C 96.832031 643.132812 100.898438 641.535156 104.964844 639.210938 L 112.664062 634.855469 L 118.472656 638.339844 C 148.6875 655.628906 216.085938 694.707031 216.378906 694.996094 C 216.667969 695.140625 211.585938 698.484375 205.191406 702.113281 C 198.65625 705.890625 193.425781 709.234375 193.425781 709.523438 C 193.425781 709.960938 194.152344 711.558594 195.023438 713.011719 C 196.621094 715.480469 197.785156 715.042969 210.566406 707.636719 L 224.367188 699.5 L 228.871094 702.113281 C 233.082031 704.585938 233.375 704.585938 235.117188 702.113281 C 236.714844 699.789062 236.570312 699.210938 233.953125 697.757812 L 230.757812 696.160156 L 234.246094 693.980469 C 236.132812 692.671875 244.121094 688.023438 251.964844 683.519531 C 264.3125 676.257812 266.492188 675.53125 269.398438 676.984375 C 283.34375 684.390625 368.898438 734.363281 370.640625 736.253906 C 373.402344 739.160156 376.597656 739.160156 379.359375 736.253906 C 380.957031 734.511719 459.394531 688.75 482.78125 675.820312 C 483.363281 675.53125 490.917969 679.308594 499.484375 684.246094 C 515.175781 693.253906 520.695312 697.175781 518.078125 697.175781 C 517.207031 697.175781 515.753906 697.757812 514.59375 698.484375 C 512.851562 699.644531 512.851562 700.226562 514.300781 702.113281 C 515.902344 704.003906 516.625 704.003906 520.984375 701.96875 C 525.777344 699.644531 525.777344 699.789062 538.851562 707.199219 C 545.96875 711.265625 552.503906 714.609375 553.378906 714.609375 C 554.539062 714.609375 556.574219 711.410156 556.574219 709.378906 C 556.574219 709.085938 551.34375 705.890625 544.808594 702.113281 C 538.414062 698.484375 533.332031 695.140625 533.621094 694.851562 C 533.914062 694.707031 557.300781 681.050781 585.625 664.632812 L 637.191406 634.855469 L 644.890625 639.210938 C 649.101562 641.535156 653.167969 643.132812 653.894531 642.699219 C 656.800781 640.953125 655.203125 638.195312 649.394531 635 L 643.4375 631.511719 L 647.941406 628.753906 C 654.042969 624.976562 655.058594 625.265625 654.621094 630.351562 C 654.332031 634.273438 654.621094 634.707031 658.398438 634.707031 L 662.613281 634.707031 L 662.902344 597.664062 L 663.335938 560.765625 L 670.308594 565.121094 C 676.992188 569.335938 677.574219 569.335938 679.460938 566.867188 C 680.476562 565.414062 681.351562 563.960938 681.496094 563.523438 C 681.496094 562.652344 671.761719 556.261719 670.308594 556.261719 C 669.582031 556.261719 667.550781 554.808594 665.515625 553.210938 C 663.484375 551.46875 666.386719 552.484375 671.90625 555.535156 C 681.640625 560.621094 682.222656 560.765625 683.964844 558.148438 C 686.289062 555.246094 684.835938 553.644531 675.539062 548.5625 L 670.746094 545.945312 L 680.1875 540.425781 C 685.273438 537.375 699.796875 529.09375 712.289062 521.832031 C 734.804688 508.902344 735.09375 508.757812 732.917969 505.5625 C 730.738281 502.511719 730.445312 502.511719 727.105469 504.691406 C 725.21875 505.851562 723.621094 506.722656 723.472656 506.578125 C 723.039062 505.414062 722.75 495.246094 723.183594 495.246094 C 723.472656 495.246094 726.378906 496.554688 729.71875 498.296875 C 734.515625 500.765625 735.820312 500.914062 736.839844 499.316406 C 738.726562 496.410156 738.582031 496.265625 730.882812 491.90625 C 726.816406 489.582031 723.472656 487.402344 723.472656 486.820312 C 722.894531 483.335938 723.039062 367.40625 723.621094 367.40625 C 724.054688 367.40625 729.429688 370.3125 735.53125 373.800781 C 746.136719 379.902344 747.007812 380.046875 748.3125 377.578125 C 749.039062 376.125 749.765625 374.527344 749.765625 374.089844 C 749.765625 373.800781 743.957031 370.023438 736.691406 365.953125 C 729.574219 361.886719 723.472656 357.675781 723.472656 356.800781 C 723.328125 355.785156 723.183594 353.460938 723.039062 351.425781 C 722.894531 348.8125 722.023438 347.648438 719.699219 347.359375 C 716.9375 346.925781 716.355469 347.503906 716.355469 350.554688 C 716.355469 354.1875 716.066406 354.042969 700.089844 344.746094 C 691.082031 339.515625 683.09375 334.429688 682.222656 333.414062 C 681.351562 332.25 680.769531 308.71875 680.914062 268.914062 C 681.203125 211.820312 680.914062 206.15625 678.734375 206.15625 C 677.425781 206.15625 673.503906 204.410156 669.875 202.378906 C 666.242188 200.199219 661.449219 197.4375 658.980469 195.984375 C 656.65625 194.679688 636.175781 182.910156 613.660156 169.835938 L 572.550781 146.15625 L 572.550781 125.238281 C 572.550781 104.464844 572.550781 104.320312 575.601562 106.0625 C 578.070312 107.371094 578.941406 107.222656 579.960938 105.773438 C 581.847656 102.867188 581.703125 102.574219 576.910156 99.816406 L 572.550781 97.347656 L 572.550781 65.242188 L 564.273438 65.242188 L 564.417969 78.316406 C 564.5625 85.578125 563.980469 91.390625 563.253906 91.390625 C 562.527344 91.390625 551.488281 85.289062 538.5625 77.734375 C 525.777344 70.324219 502.972656 57.105469 488.011719 48.535156 L 460.703125 32.84375 L 460.703125 23.691406 C 460.703125 14.832031 460.558594 14.394531 457.214844 14.394531 C 454.019531 14.394531 453.730469 14.832031 454.019531 21.515625 L 454.3125 28.777344 L 448.5 25.726562 L 442.835938 22.820312 L 446.613281 20.496094 C 450.824219 17.882812 451.261719 16.429688 449.226562 13.089844 C 447.917969 10.910156 443.125 13.378906 397.515625 40.109375 L 384.441406 47.808594 L 384.007812 39.09375 L 383.570312 30.519531 L 375 30.519531 L 366.429688 30.667969 L 365.992188 39.09375 L 365.558594 47.664062 L 334.328125 29.648438 C 317.1875 19.625 302.804688 11.488281 302.226562 11.488281 C 301.644531 11.488281 300.773438 12.507812 300.335938 13.816406 Z M 344.929688 44.46875 C 356.84375 51.292969 365.992188 57.394531 365.269531 57.976562 C 364.6875 58.703125 358.296875 62.625 351.03125 66.839844 C 309.199219 91.097656 298.011719 97.347656 296.851562 96.621094 C 295.6875 95.894531 295.398438 36.765625 296.558594 35.75 C 296.996094 35.460938 300.917969 33.136719 305.277344 30.667969 L 313.265625 26.164062 L 318.347656 29.214844 C 321.109375 30.8125 333.164062 37.785156 344.929688 44.46875 Z M 453.292969 35.605469 C 453.585938 35.894531 454.019531 50.132812 454.019531 67.273438 L 454.164062 98.363281 L 450.390625 96.472656 C 443.125 92.699219 385.894531 59.285156 384.730469 58.121094 C 384.007812 57.394531 395.480469 49.988281 410.152344 41.5625 L 436.734375 26.164062 L 444.722656 30.667969 C 449.082031 33.136719 453.003906 35.316406 453.292969 35.605469 Z M 289.296875 71.777344 C 289.296875 99.960938 289.007812 103.15625 286.828125 104.027344 C 285.519531 104.609375 280.144531 107.515625 275.0625 110.566406 L 265.910156 116.230469 L 257.921875 111.875 C 249.0625 106.789062 247.753906 106.5 246.589844 109.550781 C 246.15625 111 247.898438 112.890625 252.257812 115.503906 C 255.886719 117.539062 258.792969 119.425781 258.792969 119.71875 C 258.792969 120.007812 245.429688 127.851562 229.015625 137.296875 C 212.601562 146.738281 199.238281 154.875 199.238281 155.308594 C 199.238281 155.746094 200.109375 157.34375 201.125 158.796875 C 202.867188 161.121094 204.175781 160.539062 219.136719 151.824219 C 228.144531 146.59375 238.3125 140.78125 241.652344 138.894531 C 245.140625 137.003906 251.964844 132.9375 256.90625 130.03125 C 261.84375 127.125 266.492188 124.800781 267.21875 124.800781 C 267.945312 124.800781 273.175781 127.5625 278.984375 130.757812 L 289.296875 136.859375 L 289.296875 229.253906 L 284.941406 231.578125 C 280.4375 233.902344 279.855469 234.773438 281.746094 237.679688 C 282.46875 238.839844 283.632812 238.988281 284.941406 238.113281 C 286.101562 237.242188 287.554688 236.664062 288.28125 236.664062 C 288.863281 236.664062 289.296875 249.445312 289.296875 264.992188 L 289.296875 293.320312 L 295.835938 293.320312 L 295.835938 263.390625 C 295.835938 246.976562 296.125 233.03125 296.558594 232.449219 C 296.996094 231.722656 312.683594 222.425781 331.421875 211.53125 L 365.558594 191.773438 L 365.992188 258.453125 L 366.285156 325.132812 L 375 325.132812 L 383.714844 324.988281 L 384.007812 258.453125 L 384.441406 191.917969 L 418.578125 211.53125 C 437.316406 222.425781 453.003906 231.722656 453.4375 232.304688 C 453.875 233.03125 454.164062 246.976562 454.164062 263.390625 L 454.019531 293.320312 L 460.703125 293.320312 L 460.703125 264.84375 C 460.703125 238.261719 460.847656 236.371094 463.316406 237.386719 C 467.675781 238.988281 468.546875 238.839844 469.128906 236.371094 C 469.417969 234.773438 467.964844 233.175781 465.207031 231.578125 L 460.703125 229.253906 L 460.703125 136.859375 L 471.015625 130.757812 C 476.824219 127.5625 482.054688 124.800781 482.78125 124.800781 C 483.507812 124.800781 498.324219 132.9375 515.464844 142.960938 C 539.867188 157.054688 547.277344 160.832031 548.730469 159.523438 C 549.890625 158.652344 550.761719 157.054688 550.761719 156.179688 C 550.761719 155.164062 537.398438 146.738281 520.984375 137.296875 C 504.570312 127.851562 491.207031 120.007812 491.207031 119.71875 C 491.207031 119.425781 494.113281 117.539062 497.742188 115.503906 C 502.101562 112.890625 503.84375 111 503.410156 109.550781 C 502.246094 106.5 500.9375 106.789062 492.078125 111.726562 L 484.378906 116.085938 L 472.46875 109.402344 L 460.703125 102.722656 L 460.703125 71.632812 C 460.703125 54.492188 461.136719 40.542969 461.574219 40.542969 C 462.007812 40.542969 470.289062 45.191406 480.023438 50.859375 C 489.753906 56.667969 500.359375 62.769531 503.554688 64.660156 C 518.515625 72.941406 563.109375 98.945312 563.691406 99.523438 C 564.5625 100.398438 564.851562 140.78125 564.125 140.78125 C 563.691406 140.78125 560.929688 139.328125 557.734375 137.585938 C 552.070312 134.390625 551.925781 134.390625 549.890625 137.152344 C 548.730469 138.601562 547.855469 140.347656 547.855469 140.929688 C 547.855469 141.507812 551.34375 143.976562 555.703125 146.304688 C 559.914062 148.773438 563.691406 151.679688 564.125 152.695312 C 564.417969 153.710938 564.5625 175.9375 564.5625 202.085938 L 564.417969 249.738281 L 572.550781 249.738281 L 572.550781 203.25 C 572.550781 177.683594 572.839844 156.761719 573.132812 156.761719 C 573.421875 156.761719 585.625 163.734375 600.296875 172.160156 C 614.964844 180.730469 636.753906 193.226562 648.667969 200.054688 C 660.433594 207.027344 670.457031 213.273438 670.746094 214.144531 C 671.035156 214.871094 671.179688 240.875 671.035156 271.671875 L 670.601562 327.746094 L 630.65625 304.648438 C 594.339844 283.730469 590.5625 281.84375 588.964844 284.167969 C 587.65625 285.910156 587.511719 287.070312 588.53125 288.089844 C 589.402344 288.960938 608.140625 300.144531 630.363281 312.929688 L 670.601562 336.320312 L 671.035156 346.777344 L 671.472656 357.238281 L 676.410156 357.238281 C 681.203125 357.238281 681.351562 357.09375 680.914062 352.300781 C 680.1875 342.273438 680.914062 342.273438 698.925781 352.734375 L 715.628906 362.324219 L 716.066406 423.046875 L 716.355469 483.769531 L 710.257812 480.136719 C 706.769531 477.960938 694.714844 470.988281 683.382812 464.449219 L 662.613281 452.535156 L 662.613281 424.0625 L 670.601562 419.558594 C 678.878906 414.910156 679.316406 414.332031 677.425781 411.28125 C 676.410156 409.828125 674.667969 410.261719 669.4375 413.3125 L 662.613281 417.089844 L 662.613281 347.070312 L 654.476562 347.070312 L 654.476562 382.660156 C 654.621094 402.273438 654.332031 419.269531 653.894531 420.433594 C 653.167969 422.464844 634.578125 434.234375 632.105469 434.234375 C 630.507812 434.234375 554.539062 390.359375 553.523438 388.761719 C 553.085938 388.035156 552.941406 385.277344 553.230469 382.515625 C 553.667969 378.15625 553.378906 377.578125 550.179688 377.578125 C 547.421875 377.578125 546.550781 378.449219 546.113281 381.207031 C 545.679688 384.839844 545.097656 384.550781 521.710938 371.039062 C 500.792969 358.980469 497.597656 357.527344 495.710938 359.417969 C 494.546875 360.578125 493.820312 361.742188 494.257812 362.03125 C 494.546875 362.46875 506.3125 369.296875 520.257812 377.285156 L 545.679688 391.8125 L 546.113281 432.632812 C 546.257812 455.152344 546.113281 473.457031 545.824219 473.457031 C 545.53125 473.457031 539.722656 470.261719 533.039062 466.335938 C 526.503906 462.5625 502.390625 448.613281 479.585938 435.394531 C 456.78125 422.175781 436.734375 410.554688 434.847656 409.390625 C 431.796875 407.503906 431.214844 407.648438 429.472656 410.117188 C 428.308594 411.570312 427.730469 413.457031 428.164062 414.039062 C 428.453125 414.765625 434.265625 418.253906 440.800781 422.03125 C 447.339844 425.660156 456.054688 430.746094 459.976562 433.070312 C 464.042969 435.394531 468.402344 437.71875 469.855469 438.15625 C 471.160156 438.589844 472.324219 439.460938 472.324219 440.1875 C 472.324219 440.914062 472.902344 441.496094 473.628906 441.496094 C 474.355469 441.496094 488.15625 449.195312 504.425781 458.636719 C 520.695312 468.082031 536.816406 477.378906 540.160156 479.265625 C 543.644531 481.15625 546.113281 482.898438 545.824219 483.335938 C 545.242188 483.914062 535.363281 478.394531 460.703125 435.105469 C 430.054688 417.527344 426.421875 415.636719 424.824219 417.816406 C 423.808594 419.125 422.933594 420.722656 422.933594 421.304688 C 422.933594 421.738281 447.917969 436.703125 478.570312 454.425781 C 509.074219 472.003906 534.929688 487.113281 535.945312 487.839844 C 537.835938 489 530.71875 493.359375 473.050781 526.625 L 467.238281 529.96875 L 441.09375 514.859375 C 426.855469 506.578125 414.511719 500.1875 413.929688 500.476562 C 410.441406 502.65625 415.089844 506.433594 436.007812 518.492188 C 448.792969 525.753906 459.539062 532.292969 459.976562 533.019531 C 460.410156 533.742188 459.394531 534.617188 457.796875 535.195312 C 454.601562 536.214844 454.3125 537.085938 456.199219 540.136719 C 457.363281 542.023438 458.378906 541.878906 462.589844 539.554688 L 467.675781 536.792969 L 487.574219 548.417969 C 515.320312 564.398438 523.746094 569.191406 535.800781 575.871094 L 546.40625 581.683594 L 546.40625 609.285156 L 515.175781 627.300781 C 497.886719 637.179688 483.507812 645.75 483.21875 646.332031 C 482.925781 646.910156 483.363281 648.507812 484.378906 649.816406 C 486.121094 652.140625 489.027344 650.6875 516.335938 634.855469 L 546.40625 617.566406 L 546.40625 625.410156 C 546.40625 632.675781 546.695312 633.253906 549.746094 633.253906 C 552.796875 633.253906 553.230469 632.527344 553.230469 627.007812 C 553.378906 612.773438 552.796875 613.789062 565.433594 606.527344 L 577.054688 599.988281 L 602.765625 614.660156 C 616.855469 622.796875 629.058594 629.769531 629.636719 630.351562 C 630.945312 631.511719 624.554688 635.433594 579.085938 661.582031 C 543.933594 681.921875 527.230469 691.363281 526.792969 691.363281 C 526.214844 691.363281 499.195312 675.964844 494.257812 672.914062 L 490.917969 670.734375 L 497.164062 667.105469 C 500.648438 665.070312 503.699219 663.472656 503.84375 663.328125 C 503.988281 663.183594 502.972656 661.4375 501.519531 659.550781 L 498.90625 656.207031 L 490.335938 660.855469 L 481.621094 665.652344 L 439.640625 641.390625 C 400.855469 618.875 397.515625 617.277344 395.773438 619.601562 C 394.175781 621.777344 394.175781 622.503906 395.625 623.957031 C 396.644531 624.828125 414.21875 635.289062 434.554688 647.054688 C 454.890625 658.679688 472.03125 668.847656 472.757812 669.429688 C 473.339844 670.007812 463.460938 676.402344 450.96875 683.664062 C 438.332031 690.929688 416.109375 703.710938 401.582031 712.136719 L 375.144531 727.390625 L 360.910156 719.402344 C 353.066406 714.898438 344.351562 709.960938 341.445312 708.214844 C 338.539062 706.472656 322.707031 697.320312 306.148438 687.878906 C 289.589844 678.289062 276.660156 670.007812 277.242188 669.429688 C 277.820312 668.847656 292.203125 660.421875 308.90625 650.832031 C 325.757812 641.101562 340.429688 632.675781 341.589844 631.804688 C 342.753906 631.078125 346.238281 629.042969 349.144531 627.445312 C 355.824219 623.8125 356.988281 621.925781 354.226562 619.164062 C 352.339844 617.277344 350.015625 618.148438 334.183594 627.445312 C 324.304688 633.253906 305.421875 644.296875 292.203125 651.851562 L 268.234375 665.652344 L 259.957031 661.003906 C 255.453125 658.53125 251.386719 656.5 251.09375 656.5 C 250.660156 656.5 249.351562 658.097656 248.042969 660.132812 C 245.71875 663.617188 245.71875 663.761719 252.546875 667.105469 L 259.375 670.589844 L 255.742188 672.769531 C 250.222656 676.257812 223.785156 691.363281 223.207031 691.363281 C 222.332031 691.363281 121.667969 633.253906 120.507812 631.949219 C 119.78125 631.367188 131.402344 623.957031 146.074219 615.386719 L 172.945312 599.84375 L 184.566406 606.671875 C 192.847656 611.464844 196.332031 614.371094 196.476562 616.550781 C 196.621094 618.148438 196.769531 622.503906 196.769531 626.28125 C 196.769531 632.527344 197.203125 633.253906 200.253906 633.253906 C 203.304688 633.253906 203.59375 632.675781 203.59375 625.847656 C 203.59375 619.746094 204.03125 618.582031 205.773438 619.308594 C 207.082031 619.746094 220.589844 627.300781 235.84375 636.304688 C 261.261719 650.980469 263.878906 652.140625 265.621094 649.816406 C 266.636719 648.507812 267.074219 646.910156 266.78125 646.183594 C 266.347656 645.605469 251.964844 637.03125 234.824219 627.152344 L 203.59375 609.285156 L 203.886719 595.628906 L 204.320312 581.828125 L 211.585938 577.617188 C 215.652344 575.292969 233.082031 565.121094 250.511719 555.097656 L 282.324219 536.792969 L 287.410156 539.554688 C 291.621094 541.878906 292.636719 542.023438 293.800781 540.136719 C 295.6875 537.085938 295.398438 536.214844 292.058594 535.195312 C 287.699219 533.742188 289.296875 532.4375 315.152344 517.765625 C 335.054688 506.289062 339.558594 502.65625 336.070312 500.476562 C 335.488281 500.1875 323.144531 506.578125 308.90625 514.859375 L 282.761719 529.820312 L 274.773438 525.316406 C 270.414062 522.847656 257.339844 515.292969 245.71875 508.613281 C 234.097656 501.785156 222.332031 495.101562 219.574219 493.503906 C 216.8125 491.90625 214.054688 490.164062 213.328125 489.582031 C 212.746094 489 238.167969 473.601562 269.6875 455.441406 C 301.207031 437.136719 327.066406 421.882812 327.066406 421.59375 C 327.066406 421.304688 326.339844 419.707031 325.613281 418.105469 C 323.722656 414.765625 329.96875 411.425781 256.90625 453.84375 C 228.289062 470.40625 204.757812 483.769531 204.464844 483.480469 C 204.03125 483.042969 240.34375 461.542969 305.855469 423.773438 C 323.144531 413.75 323.289062 413.75 320.820312 410.40625 C 318.496094 407.355469 325.46875 403.582031 220.300781 464.304688 L 204.320312 473.457031 L 203.886719 433.214844 C 203.59375 399.367188 203.886719 392.539062 205.628906 391.230469 C 206.789062 390.503906 218.558594 383.53125 231.773438 375.976562 C 244.992188 368.425781 255.886719 362.03125 255.886719 361.597656 C 255.886719 361.160156 255.308594 360 254.582031 358.835938 C 253.417969 357.09375 248.480469 359.417969 228.726562 370.75 C 204.902344 384.550781 204.320312 384.695312 203.886719 381.207031 C 203.59375 378.59375 202.578125 377.578125 200.253906 377.578125 C 197.496094 377.578125 197.058594 378.449219 196.769531 383.679688 C 196.476562 386.875 196.1875 389.777344 196.042969 389.925781 C 195.023438 390.503906 134.015625 425.515625 129.367188 428.132812 C 126.464844 429.730469 122.832031 431.90625 121.234375 432.78125 C 118.765625 434.378906 116.875 433.796875 108.304688 429.148438 C 102.785156 426.242188 97.703125 423.191406 96.832031 422.464844 C 96.105469 421.59375 95.378906 406.195312 95.378906 384.402344 L 95.378906 347.796875 L 91.3125 347.359375 L 87.386719 346.925781 L 87.386719 417.089844 L 81.140625 413.3125 C 76.347656 410.554688 74.316406 410.117188 73.152344 411.28125 C 70.394531 414.039062 70.972656 414.765625 79.398438 419.558594 L 87.386719 424.0625 L 87.386719 452.390625 L 60.515625 467.9375 L 33.644531 483.480469 L 33.644531 362.324219 L 43.519531 356.949219 C 48.894531 353.898438 56.59375 349.539062 60.804688 347.214844 C 64.875 344.890625 68.503906 343.148438 68.796875 343.582031 C 69.230469 343.875 69.230469 347.070312 69.085938 350.699219 L 68.648438 357.238281 L 78.527344 357.238281 L 78.964844 346.777344 L 79.398438 336.171875 L 111.355469 317.722656 C 128.933594 307.554688 147.671875 296.804688 153.046875 293.898438 C 161.46875 289.105469 162.488281 288.089844 161.46875 285.472656 C 160.890625 283.730469 159.4375 282.566406 158.273438 282.859375 C 156.675781 283.292969 90.292969 321.066406 81.867188 326.441406 L 78.671875 328.472656 L 78.964844 270.800781 L 79.398438 212.984375 L 88.695312 207.460938 C 93.632812 204.265625 97.992188 201.796875 98.28125 201.796875 C 98.429688 201.796875 116.148438 191.628906 137.503906 179.28125 C 158.855469 166.929688 176.578125 156.761719 176.867188 156.761719 C 177.160156 156.761719 177.449219 177.683594 177.449219 203.25 L 177.449219 249.738281 L 185.582031 249.738281 L 185.4375 202.085938 C 185.292969 175.9375 185.582031 153.710938 185.875 152.695312 C 186.308594 151.679688 190.085938 148.773438 194.296875 146.304688 C 198.65625 143.976562 202.144531 141.507812 202.144531 140.929688 C 202.144531 140.347656 201.269531 138.601562 200.109375 137.152344 C 198.074219 134.390625 197.929688 134.390625 192.265625 137.585938 C 189.070312 139.328125 186.164062 140.347656 185.875 139.765625 C 185.292969 138.75 185.582031 105.480469 186.019531 100.832031 C 186.164062 99.960938 190.230469 96.910156 195.316406 94.003906 C 200.253906 91.246094 206.644531 87.46875 209.40625 85.871094 C 227.5625 75.410156 271.574219 49.988281 278.695312 45.773438 C 283.34375 42.867188 287.554688 40.691406 288.28125 40.542969 C 288.863281 40.542969 289.296875 54.636719 289.296875 71.777344 Z M 375.726562 47.082031 C 375.871094 49.84375 375.582031 51.730469 375.144531 51.292969 C 374.710938 50.859375 374.273438 48.242188 374.273438 45.628906 C 374.128906 42.867188 374.417969 40.980469 374.855469 41.417969 C 375.289062 41.851562 375.726562 44.46875 375.726562 47.082031 Z M 375.871094 67.273438 C 375.871094 70.035156 375.4375 72.070312 374.855469 71.777344 C 373.839844 71.050781 374.273438 62.335938 375.4375 62.335938 C 375.582031 62.335938 375.871094 64.515625 375.871094 67.273438 Z M 366.285156 120.589844 L 366.285156 174.484375 L 363.089844 172.453125 C 361.199219 171.289062 356.117188 168.238281 351.757812 165.914062 C 347.402344 163.445312 337.960938 158.070312 330.695312 153.855469 C 305.277344 139.039062 303.097656 137.730469 299.902344 136.132812 C 296.125 134.246094 296.269531 135.117188 295.980469 120.007812 C 295.835938 111.875 296.414062 108.097656 297.867188 106.933594 C 299.320312 105.625 364.25 67.421875 365.992188 66.839844 C 366.140625 66.695312 366.285156 90.953125 366.285156 120.589844 Z M 428.746094 92.84375 C 440.367188 99.523438 450.824219 105.773438 451.988281 106.789062 C 453.730469 108.242188 454.3125 111.582031 454.019531 121.171875 C 454.019531 128 453.585938 133.808594 453.292969 134.101562 C 453.003906 134.390625 437.75 143.253906 419.304688 153.855469 C 401 164.460938 385.457031 173.324219 384.878906 173.757812 C 384.152344 174.050781 383.714844 150.078125 383.714844 120.589844 L 383.714844 66.695312 L 395.773438 73.8125 C 402.308594 77.589844 417.125 86.160156 428.746094 92.84375 Z M 375.871094 86.449219 C 375.871094 88.339844 375.582031 89.648438 375.144531 89.210938 C 374.710938 88.773438 374.273438 86.742188 374.128906 84.707031 C 374.128906 82.820312 374.417969 81.511719 374.855469 81.945312 C 375.289062 82.382812 375.726562 84.417969 375.871094 86.449219 Z M 288.863281 128.578125 C 287.992188 129.453125 274.773438 121.898438 274.773438 120.589844 C 274.773438 120.007812 277.820312 117.828125 281.746094 115.652344 L 288.570312 111.875 L 289.007812 120.007812 C 289.296875 124.367188 289.152344 128.289062 288.863281 128.578125 Z M 475.226562 120.589844 C 475.226562 121.460938 462.734375 129.160156 461.285156 129.160156 C 460.992188 129.160156 460.703125 125.238281 460.703125 120.300781 L 460.703125 111.582031 L 467.964844 115.503906 C 472.03125 117.683594 475.226562 120.007812 475.226562 120.589844 Z M 375.871094 127.125 C 375.871094 129.015625 375.582031 130.324219 375.144531 129.886719 C 374.710938 129.453125 374.273438 127.417969 374.128906 125.382812 C 374.128906 123.496094 374.417969 122.1875 374.855469 122.625 C 375.289062 123.058594 375.726562 125.09375 375.871094 127.125 Z M 375.726562 143.976562 C 374.710938 148.628906 373.839844 148.628906 374.128906 143.832031 C 374.128906 141.507812 374.710938 139.910156 375.289062 140.203125 C 375.871094 140.492188 376.015625 142.234375 375.726562 143.976562 Z M 454.164062 182.765625 L 454.164062 224.894531 L 445.449219 219.957031 C 410.734375 200.632812 384.441406 184.65625 384.441406 182.910156 C 384.441406 181.3125 413.203125 163.878906 445.449219 145.722656 C 450.242188 143.105469 454.164062 140.78125 454.164062 140.78125 C 454.164062 140.78125 454.164062 159.667969 454.164062 182.765625 Z M 332.148438 161.554688 C 350.597656 172.304688 365.558594 181.75 365.558594 182.910156 C 365.558594 184.507812 321.546875 211.238281 302.371094 221.261719 L 295.835938 224.75 L 295.835938 183.492188 C 295.835938 156.90625 296.414062 142.234375 297.285156 142.234375 C 298.160156 142.234375 313.847656 150.953125 332.148438 161.554688 Z M 375.726562 174.050781 C 376.160156 174.777344 376.015625 175.792969 375.289062 176.230469 C 374.5625 176.664062 373.984375 176.082031 373.984375 174.921875 C 373.984375 172.453125 374.417969 172.160156 375.726562 174.050781 Z M 375.726562 205.429688 C 375.871094 209.058594 375.582031 211.53125 375.144531 211.09375 C 374.710938 210.660156 374.273438 207.460938 374.273438 203.976562 C 374.128906 200.34375 374.417969 197.875 374.855469 198.308594 C 375.289062 198.746094 375.726562 201.941406 375.726562 205.429688 Z M 375.726562 225.332031 C 374.710938 229.980469 373.839844 229.980469 374.128906 225.1875 C 374.128906 222.863281 374.710938 221.261719 375.289062 221.554688 C 375.871094 221.84375 376.015625 223.585938 375.726562 225.332031 Z M 375.871094 243.34375 C 375.871094 245.234375 375.582031 246.539062 375.144531 246.105469 C 374.710938 245.667969 374.273438 243.636719 374.128906 241.601562 C 374.128906 239.714844 374.417969 238.40625 374.855469 238.839844 C 375.289062 239.277344 375.726562 241.3125 375.871094 243.34375 Z M 375.726562 260.195312 C 374.710938 264.84375 373.839844 264.84375 374.128906 260.050781 C 374.128906 257.726562 374.710938 256.128906 375.289062 256.417969 C 375.871094 256.710938 376.015625 258.453125 375.726562 260.195312 Z M 375.871094 289.832031 C 375.871094 291.71875 375.582031 293.027344 375.144531 292.59375 C 374.710938 292.15625 374.273438 290.121094 374.128906 288.089844 C 374.128906 286.199219 374.417969 284.894531 374.855469 285.328125 C 375.289062 285.765625 375.726562 287.796875 375.871094 289.832031 Z M 375.726562 306.683594 C 374.710938 311.332031 373.839844 311.332031 374.128906 306.539062 C 374.128906 304.214844 374.710938 302.617188 375.289062 302.90625 C 375.871094 303.195312 376.015625 304.941406 375.726562 306.683594 Z M 196.914062 438.445312 C 196.914062 460.089844 196.476562 478.105469 196.042969 478.539062 C 195.605469 478.976562 186.164062 474.183594 175.125 467.644531 C 163.941406 461.253906 148.25 452.246094 140.117188 447.742188 C 131.835938 443.09375 125.15625 439.027344 125.15625 438.589844 C 125.15625 437.574219 129.367188 435.105469 165.828125 414.039062 C 182.242188 404.597656 195.898438 397.332031 196.332031 397.914062 C 196.769531 398.640625 197.058594 416.800781 196.914062 438.445312 Z M 592.597656 418.980469 C 610.320312 429.148438 624.84375 437.863281 624.84375 438.445312 C 624.84375 438.882812 617.871094 443.238281 609.300781 448.035156 C 600.730469 452.828125 591 458.347656 587.65625 460.382812 C 567.03125 472.585938 557.445312 477.8125 555.410156 478.105469 C 553.378906 478.539062 553.085938 474.472656 552.941406 439.316406 C 552.941406 417.671875 553.085938 399.222656 553.378906 398.203125 C 553.957031 396.753906 554.683594 396.753906 557.152344 398.351562 C 558.75 399.511719 574.730469 408.664062 592.597656 418.980469 Z M 104.238281 433.652344 C 107.726562 435.683594 110.628906 437.863281 110.628906 438.300781 C 110.628906 438.882812 107.433594 441.058594 103.511719 443.238281 C 98.574219 445.855469 96.105469 446.582031 95.8125 445.417969 C 95.234375 443.964844 95.378906 434.8125 95.957031 430.890625 C 96.25 429.292969 97.265625 429.582031 104.238281 433.652344 Z M 654.042969 431.328125 C 654.621094 438.300781 654.1875 445.855469 653.023438 445.855469 C 650.992188 445.855469 639.371094 439.460938 639.371094 438.300781 C 639.371094 437.285156 650.699219 430.308594 652.878906 430.019531 C 653.460938 429.875 653.894531 430.457031 654.042969 431.328125 Z M 185.875 481.445312 C 187.472656 482.898438 179.046875 488.273438 143.023438 508.902344 C 118.472656 523.140625 97.703125 534.761719 96.976562 534.90625 C 95.234375 535.195312 94.652344 459.21875 96.394531 455.734375 C 96.976562 454.425781 102.203125 450.792969 107.871094 447.597656 L 118.183594 441.933594 L 151.011719 460.816406 C 169.167969 471.132812 184.855469 480.429688 185.875 481.445312 Z M 652.441406 453.988281 C 654.332031 455.585938 654.621094 461.6875 654.332031 494.8125 C 654.332031 516.167969 654.042969 534.324219 654.042969 534.90625 C 653.894531 535.632812 651.71875 534.90625 649.246094 533.308594 C 646.632812 531.710938 626.007812 519.796875 603.492188 506.867188 C 580.832031 493.792969 562.382812 482.753906 562.382812 482.316406 C 562.382812 481.738281 565.144531 479.847656 568.628906 478.105469 C 571.96875 476.507812 587.511719 467.644531 603.054688 458.492188 L 631.378906 441.933594 L 640.824219 447.015625 C 646.050781 449.777344 651.28125 452.972656 652.441406 453.988281 Z M 87.386719 501.058594 L 87.386719 541.878906 L 83.464844 539.699219 C 81.140625 538.539062 74.171875 534.617188 67.777344 530.839844 C 61.386719 526.917969 53.832031 522.558594 51.074219 520.960938 C 48.3125 519.507812 43.230469 516.601562 39.890625 514.566406 L 33.644531 510.9375 L 33.644531 490.164062 L 59.5 475.34375 C 73.589844 467.210938 85.644531 460.527344 86.371094 460.527344 C 86.953125 460.382812 87.386719 478.6875 87.386719 501.058594 Z M 671.035156 464.304688 C 674.957031 466.628906 686.722656 473.3125 697.183594 479.265625 L 716.355469 490.164062 L 716.066406 500.765625 L 715.628906 511.371094 L 691.664062 525.171875 C 678.445312 532.871094 666.535156 539.699219 665.226562 540.425781 C 662.757812 541.734375 662.613281 539.410156 662.613281 501.058594 C 662.613281 478.6875 662.902344 460.382812 663.335938 460.382812 C 663.628906 460.382812 667.113281 462.125 671.035156 464.304688 Z M 196.1875 488.5625 C 195.460938 489.289062 166.265625 506.433594 153.480469 513.695312 C 147.960938 516.890625 132.855469 525.464844 120.21875 532.871094 C 107.578125 540.136719 96.832031 545.945312 96.539062 545.511719 C 96.25 545.21875 103.65625 540.570312 113.097656 535.195312 C 122.542969 529.820312 132.273438 524.15625 134.597656 522.847656 C 137.066406 521.394531 151.449219 513.117188 166.554688 504.253906 C 189.652344 490.742188 199.382812 485.660156 196.1875 488.5625 Z M 604.652344 516.457031 C 631.816406 532.144531 653.75 545.21875 653.460938 545.65625 C 653.167969 545.945312 644.746094 541.445312 634.867188 535.777344 C 624.988281 530.113281 614.53125 524.15625 611.769531 522.558594 C 570.082031 498.734375 552.214844 487.984375 554.101562 487.984375 C 554.683594 487.984375 577.488281 500.765625 604.652344 516.457031 Z M 246.882812 516.3125 C 263.152344 525.609375 276.222656 533.453125 275.933594 533.742188 C 275.644531 533.890625 268.960938 537.8125 260.972656 542.460938 C 252.984375 547.109375 244.558594 552.046875 242.089844 553.355469 C 239.765625 554.808594 230.175781 560.183594 221.027344 565.558594 L 204.320312 575.148438 L 203.886719 535.632812 C 203.742188 513.839844 203.886719 495.101562 204.320312 494.085938 C 204.902344 492.488281 206.5 492.921875 211.292969 495.683594 C 214.636719 497.570312 230.613281 506.867188 246.882812 516.3125 Z M 546.113281 534.90625 L 545.679688 575.148438 L 509.800781 554.519531 C 490.042969 543.042969 474.355469 533.308594 474.9375 532.871094 C 475.519531 532.292969 482.492188 528.078125 490.480469 523.429688 C 498.46875 518.925781 513.867188 510.066406 524.617188 503.816406 C 535.363281 497.570312 544.660156 493.066406 545.386719 493.648438 C 545.96875 494.230469 546.257812 512.824219 546.113281 534.90625 Z M 196.914062 539.554688 L 197.058594 579.359375 L 185.875 585.898438 L 174.542969 592.433594 L 139.101562 571.804688 L 103.511719 551.320312 L 117.601562 543.1875 C 168.878906 513.40625 195.605469 498.296875 196.1875 499.023438 C 196.621094 499.316406 196.914062 517.617188 196.914062 539.554688 Z M 603.054688 526.191406 C 626.585938 539.699219 646.050781 550.886719 646.195312 551.03125 C 646.34375 551.175781 630.507812 560.621094 611.042969 571.804688 L 575.457031 592.433594 L 564.851562 586.476562 C 559.1875 583.136719 554.101562 580.230469 553.667969 579.941406 C 552.941406 579.359375 552.503906 500.765625 553.378906 499.167969 C 553.957031 497.863281 551.925781 496.699219 603.054688 526.191406 Z M 120.21875 569.480469 C 133 576.890625 148.398438 585.75 154.644531 589.238281 C 160.742188 592.726562 165.828125 596.066406 165.828125 596.648438 C 165.683594 597.808594 114.40625 627.445312 112.519531 627.445312 C 111.9375 627.445312 107.726562 625.265625 103.367188 622.652344 L 95.378906 617.855469 L 95.378906 587.058594 C 95.378906 570.0625 95.8125 556.261719 96.25 556.261719 C 96.832031 556.261719 107.578125 562.21875 120.21875 569.480469 Z M 654.621094 586.1875 C 654.621094 602.023438 654.1875 616.113281 653.75 617.277344 C 653.167969 618.4375 649.101562 621.34375 644.890625 623.667969 L 637.046875 627.734375 L 610.609375 612.773438 C 596.082031 604.492188 584.316406 597.082031 584.609375 596.5 C 585.042969 594.757812 651.425781 556.40625 653.167969 556.84375 C 654.042969 557.132812 654.621094 568.753906 654.621094 586.1875 Z M 196.914062 596.210938 C 197.058594 604.78125 196.1875 605.652344 190.8125 601.875 C 189.070312 600.714844 185.875 598.824219 183.839844 597.664062 L 180.0625 595.773438 L 187.761719 591.273438 C 191.972656 588.949219 195.75 587.203125 196.042969 587.496094 C 196.476562 587.785156 196.769531 591.707031 196.914062 596.210938 Z M 568.195312 595.773438 C 568.195312 596.792969 555.410156 604.199219 553.667969 604.199219 C 552.941406 604.199219 552.796875 595.628906 553.523438 587.785156 C 553.667969 586.476562 568.195312 594.324219 568.195312 595.773438 Z M 568.195312 595.773438 " fill-opacity="1" fill-rule="nonzero"/><path fill="url(#grav-grad)" d="M 307.890625 305.8125 L 307.453125 347.214844 L 300.191406 351.28125 C 296.269531 353.605469 280.292969 362.757812 264.894531 371.765625 C 240.054688 386.148438 237.003906 388.328125 238.894531 390.214844 C 240.78125 392.105469 244.847656 390.214844 273.464844 373.800781 C 291.332031 363.484375 306.4375 354.769531 307.019531 354.625 C 307.601562 354.332031 308.179688 363.628906 308.179688 375.253906 L 308.179688 396.460938 L 315.007812 396.460938 L 314.863281 373.800781 C 314.71875 361.449219 315.007812 350.699219 315.445312 350.121094 C 315.878906 349.539062 323.433594 344.890625 332.148438 339.804688 C 354.519531 327.023438 354.664062 327.023438 353.792969 324.550781 C 353.210938 323.390625 352.339844 322.371094 351.613281 322.371094 C 350.886719 322.371094 342.316406 326.875 332.730469 332.542969 C 322.996094 338.0625 315.007812 342.710938 314.863281 342.710938 C 314.863281 342.710938 314.71875 325.132812 314.71875 303.488281 L 314.863281 264.265625 L 308.179688 264.265625 Z M 307.890625 305.8125 " fill-opacity="1" fill-rule="nonzero"/><path fill="url(#grav-grad)" d="M 435.28125 302.324219 C 435.28125 323.390625 435.136719 340.96875 434.992188 341.546875 C 434.699219 341.984375 426.710938 337.917969 417.125 332.398438 C 407.539062 326.875 399.113281 322.371094 398.386719 322.371094 C 397.660156 322.371094 396.789062 323.390625 396.207031 324.550781 C 395.335938 327.023438 395.480469 327.167969 417.851562 339.804688 C 426.710938 344.890625 434.121094 349.25 434.410156 349.539062 C 434.847656 349.828125 435.136719 360.289062 435.136719 372.925781 C 435.28125 395.445312 435.28125 395.734375 438.625 396.171875 C 441.820312 396.605469 441.820312 396.605469 441.820312 375.398438 C 441.820312 363.628906 442.398438 354.332031 442.980469 354.625 C 443.707031 354.769531 458.667969 363.484375 476.535156 373.800781 C 505.441406 390.503906 509.074219 392.25 511.105469 390.214844 C 513.578125 387.746094 517.0625 390.070312 469.128906 362.46875 L 441.820312 346.777344 L 441.820312 264.265625 L 435.136719 264.265625 Z M 435.28125 302.324219 " fill-opacity="1" fill-rule="nonzero"/><path fill="url(#grav-grad)" d="M 333.019531 433.941406 C 331.859375 436.121094 334.472656 438.15625 350.304688 447.308594 L 369.042969 458.058594 L 364.832031 460.671875 C 362.507812 461.980469 347.253906 470.839844 331.132812 480.136719 C 314.863281 489.4375 301.355469 497.425781 301.0625 497.714844 C 300.628906 498.007812 301.355469 499.167969 302.515625 500.332031 C 304.257812 502.074219 306.148438 501.347656 316.171875 495.390625 C 322.5625 491.613281 338.394531 482.464844 351.46875 475.054688 L 375.144531 461.542969 L 392.867188 471.710938 C 402.597656 477.378906 418.433594 486.53125 428.019531 492.195312 C 442.980469 500.914062 445.742188 502.074219 447.484375 500.332031 C 448.644531 499.167969 449.371094 498.007812 448.9375 497.714844 C 448.644531 497.425781 435.136719 489.4375 418.867188 480.136719 C 402.746094 470.839844 387.492188 461.980469 385.167969 460.527344 L 380.808594 457.910156 L 398.386719 447.886719 C 408.117188 442.367188 416.398438 436.992188 416.6875 435.976562 C 418.867188 430.746094 413.203125 432.632812 394.898438 443.238281 L 374.855469 454.714844 L 354.664062 443.09375 C 336.652344 432.78125 334.183594 431.761719 333.019531 433.941406 Z M 333.019531 433.941406 " fill-opacity="1" fill-rule="nonzero"/></svg>